<svg width="10" height="11" viewBox="0 0 10 11" fill="none" xmlns="http://www.w3.org/2000/svg">
<g clip-path="url(#clip0_37_3927)">
<path d="M5.10078 5.25975C5.12031 5.18813 5.10729 5.10675 5.06172 5.0156C5.02266 4.94399 4.96732 4.86912 4.8957 4.791L0.901563 0.806621C0.797396 0.702454 0.673698 0.650371 0.530469 0.650371C0.38724 0.650371 0.265169 0.702454 0.164258 0.806621C0.0633464 0.910788 0.0128906 1.03448 0.0128906 1.17771C0.0128906 1.32094 0.0617187 1.44464 0.159375 1.54881L3.96797 5.24998L0.159375 8.96092C0.0682292 9.04555 0.0161458 9.14972 0.003125 9.27342C-0.00989583 9.39712 0.0177734 9.51267 0.0861328 9.6201C0.154492 9.72752 0.250521 9.79751 0.374219 9.83006C0.497917 9.86261 0.615104 9.8561 0.725781 9.81053C0.790885 9.78448 0.849479 9.74542 0.901563 9.69334L4.8957 5.70896C4.96732 5.63084 5.0194 5.56248 5.05195 5.50389C5.09753 5.41274 5.1138 5.33136 5.10078 5.25975ZM9.78828 4.791L5.79414 0.806621C5.68997 0.702454 5.56628 0.650371 5.42305 0.650371C5.27982 0.650371 5.15775 0.702454 5.05684 0.806621C4.95592 0.910788 4.90547 1.03448 4.90547 1.17771C4.90547 1.32094 4.9543 1.44464 5.05195 1.54881L8.86055 5.25975L5.05195 8.95115C4.96081 9.0423 4.90872 9.14972 4.8957 9.27342C4.88268 9.39712 4.91198 9.51105 4.98359 9.61521C5.05521 9.71938 5.15124 9.78937 5.27168 9.82517C5.39212 9.86098 5.50768 9.8561 5.61836 9.81053C5.68346 9.78448 5.7388 9.74542 5.78438 9.69334L9.78828 5.71873C9.8599 5.62758 9.91198 5.55597 9.94453 5.50389C9.9901 5.41925 10.0064 5.33787 9.99336 5.25975C10.0259 5.12303 9.95755 4.96678 9.78828 4.791Z" fill="#3E5765"/>
</g>
<defs>
<clipPath id="clip0_37_3927">
<rect width="10" height="10.5" fill="white" transform="matrix(1 0 0 -1 0 10.5)"/>
</clipPath>
</defs>
</svg>
